<?xml version="1.0" encoding="UTF-8"?>
<svg id="Mode_Isolation" xmlns="http://www.w3.org/2000/svg" version="1.1" viewBox="0 0 1363 309">
  <!-- Generator: Adobe Illustrator 29.8.1, SVG Export Plug-In . SVG Version: 2.1.1 Build 2)  -->
  <defs>
    <style>
      .st0 {
        fill: #20187f;
      }
    </style>
  </defs>
  <g>
    <path class="st0" d="M1080.78,1.64c9.87,0,18.75,5.3,21.63,14.74.2.53.36,1.13.5,1.69h-11.06c-.2-.26-.4-.6-.63-.83-1.79-3.97-5.8-6.43-10.43-6.43-8.74,0-13.08,7.15-13.08,15.43s4.34,15.43,13.05,15.43c5.53,0,9.84-2.88,11.43-7.49.13-.63.27-2.58.36-3.25h-12.42v-7.29l23.18-.03-.03,8.71c-1.85,11.99-10.9,18.61-22.59,18.61-14.27,0-23.12-10.27-23.12-24.68s8.94-24.64,23.22-24.64Z"/>
    <path class="st0" d="M1109.89.49h9.44v49.68h-9.44V.49Z"/>
    <path class="st0" d="M1143.39,12.81c11.1,0,18.45,7.58,18.45,19.04s-7.12,19.08-18.32,19.08-18.35-7.55-18.35-19.11,7.19-19.01,18.22-19.01ZM1143.36,20.66c-5.76,0-8.45,5.37-8.45,11.2s2.82,11.23,8.58,11.23,8.61-5.37,8.61-11.23-2.98-11.2-8.74-11.2Z"/>
    <path class="st0" d="M1167.76.49h9.44v19.41h.27c2.35-5.07,7.12-7.05,11.29-7.05,9.21,0,15.27,7.58,15.27,19.04s-6,19.04-15.27,19.04c-4.67,0-9.24-2.62-11.29-7.05h-.27v6.29h-9.44V.49ZM1185.67,20.52c-5.76,0-8.45,5.4-8.45,11.26s2.68,11.29,8.45,11.29,8.61-5.4,8.61-11.29-2.85-11.26-8.61-11.26Z"/>
    <path class="st0" d="M1225.11,19.73c-3.38,0-6.66,1.59-6.62,5h-9.01c-.03-7.22,6.89-11.89,15.67-11.89s15.33,3.78,15.33,11.69v18.88c0,2.42.33,4.54,1.72,6.76h-9.7c-1.03-1.72-1.66-3.35-1.66-5.23v-.79h-.23c-1.46,3.81-5.27,6.82-10.86,6.82-6.56,0-11.63-4.21-11.63-11.36s5.86-10.7,13.88-11.53l6.96-.7c1.66-.2,2.09-1.23,2.09-2.72,0-3.54-3.08-4.94-5.93-4.94ZM1216.27,40.2c-.04,4.32,3.33,6.04,6.15,6.04,4.87,0,8.62-4.16,8.62-9.61v-3.72l-7.33.84c-3.93.44-7.44,2.2-7.44,6.44Z"/>
    <path class="st0" d="M1247.62.49h9.44v49.68h-9.44V.49Z"/>
    <path class="st0" d="M1071.28,97.25h-15.9v-9.04h41.93v9.04h-15.9v38.85h-10.13v-38.85Z"/>
    <path class="st0" d="M1114.52,136.86c-10.6,0-17.85-7.65-17.85-19.28,0-10,5.8-18.81,17.46-18.81,10.9,0,17.39,7.32,17.39,19.54v1.62h-25.8c.13,5.76,3.21,9.77,8.98,9.77,4.27,0,6.89-2.29,7.52-5.2h8.84c-1.16,8.68-8.41,12.35-16.53,12.35ZM1105.84,113.87h16.49c-.5-4.8-3.68-8.02-8.25-8.02s-7.68,3.25-8.25,8.02Z"/>
    <path class="st0" d="M1135.91,117.75c0-11.73,7.49-18.98,18.18-18.98,9.41,0,15.6,5.17,16.66,13.75h-8.91c-.79-3.08-3.28-6.19-7.75-6.19-5.89,0-8.81,5.7-8.81,11.49s2.95,11.49,8.81,11.49c4.6,0,7.12-3.01,7.82-6.19h8.84c-1.06,8.38-6.72,13.75-16.66,13.75-10.76,0-18.18-7.35-18.18-19.11Z"/>
    <path class="st0" d="M1176.1,86.25h9.44v19.57h.23c1.82-4.37,6-7.09,11.36-7.09,7.39,0,13.25,3.48,13.25,15.7v21.66h-9.44v-21.43c0-4.6-2.15-7.92-7.09-7.92-5.27,0-8.31,4.37-8.31,8.61v20.73h-9.44v-49.85Z"/>
    <path class="st0" d="M1217.29,99.47h9.44v6.36h.23c1.82-4.37,6-7.09,11.36-7.09,7.35,0,13.25,3.48,13.25,15.7v21.66h-9.44v-21.43c0-4.6-2.15-7.92-7.09-7.92-5.3,0-8.31,4.07-8.31,8.61v20.73h-9.44v-36.63Z"/>
    <path class="st0" d="M1263.29,84.03c3.54,0,5.83,2.15,5.83,5.37s-2.28,5.5-5.83,5.5-5.63-2.15-5.63-5.5,2.25-5.37,5.63-5.37ZM1258.62,136.1v-36.63h9.44v36.63h-9.44Z"/>
    <path class="st0" d="M1274.11,117.75c0-11.73,7.49-18.98,18.18-18.98,9.41,0,15.6,5.17,16.66,13.75h-8.91c-.79-3.08-3.28-6.19-7.75-6.19-5.9,0-8.81,5.7-8.81,11.49s2.95,11.49,8.81,11.49c4.6,0,7.12-3.01,7.82-6.19h8.84c-1.06,8.38-6.72,13.75-16.66,13.75-10.77,0-18.18-7.35-18.18-19.11Z"/>
    <path class="st0" d="M1329.9,105.66c-3.38,0-6.66,1.59-6.62,5h-9.01c-.03-7.22,6.89-11.89,15.67-11.89s15.33,3.78,15.33,11.69v18.88c0,2.42.33,4.54,1.72,6.76h-9.7c-1.03-1.72-1.66-3.35-1.66-5.23v-.79h-.23c-1.46,3.81-5.27,6.82-10.86,6.82-6.56,0-11.63-4.21-11.63-11.36s5.86-10.7,13.88-11.53l6.96-.7c1.66-.2,2.09-1.23,2.09-2.72,0-3.54-3.08-4.94-5.93-4.94ZM1322.15,124.87c-.03,3.58,3.08,5,5.7,5,4.5,0,7.98-3.44,7.98-7.95v-3.08l-6.79.7c-3.64.36-6.89,1.82-6.89,5.33Z"/>
    <path class="st0" d="M1352.41,86.42h9.44v49.68h-9.44v-49.68Z"/>
    <path class="st0" d="M1058.92,174.2h9.77v47.83h-9.77v-47.83Z"/>
    <path class="st0" d="M1076.56,185.4h9.44v6.36h.23c1.82-4.37,6-7.09,11.36-7.09,7.35,0,13.25,3.48,13.25,15.7v21.66h-9.44v-21.43c0-4.6-2.15-7.92-7.09-7.92-5.3,0-8.31,4.07-8.31,8.61v20.73h-9.44v-36.63Z"/>
    <path class="st0" d="M1152.66,222.03h-9.44v-6.29h-.27c-2.09,4.44-6.66,7.05-11.29,7.05-9.31,0-15.27-7.52-15.27-19.04s6.06-19.04,15.27-19.04c4.17,0,8.94,1.99,11.26,7.05h.3v-19.41h9.44v49.68ZM1134.71,214.94c5.76,0,8.48-5.4,8.48-11.29s-2.68-11.26-8.48-11.26-8.58,5.37-8.58,11.26,2.78,11.29,8.58,11.29Z"/>
    <path class="st0" d="M1184.41,222.03v-6.36h-.26c-1.82,4.37-6,7.09-11.36,7.09-7.39,0-13.22-3.48-13.22-15.7v-21.66h9.44v21.43c0,4.6,2.12,7.92,7.05,7.92,5.3,0,8.35-4.07,8.35-8.61v-20.73h9.44v36.63h-9.44Z"/>
    <path class="st0" d="M1199.44,210.7h9.11c.86,3.88,4.04,5.3,7.72,5.3,2.35,0,5.17-1.03,5.17-3.91,0-2.55-1.92-3.71-5-4.44l-5.89-1.42c-5-1.19-9.87-4.14-9.87-10.37,0-7.42,6.33-11.16,14.77-11.16,7.98,0,14.47,3.64,15.37,11.82h-8.61c-.7-3.58-3.31-5-6.66-5-2.72,0-5.6,1.16-5.6,3.68,0,1.85,1.62,3.35,4.7,4.07l6.16,1.42c6.62,1.52,10.47,4.14,10.47,10.4,0,7.49-6.56,11.73-15.63,11.73-8.01,0-15.17-3.35-16.2-12.12Z"/>
    <path class="st0" d="M1238.94,185.4v-10.7h9.44v10.7h7.98v7.92h-7.98v16.13c0,3.08.96,4.8,4.21,4.8,1.03,0,2.19-.26,3.41-.66l1.39,8.05c-2.52.8-5.07,1.19-7.49,1.19-7.05,0-10.96-3.01-10.96-13.18v-16.33h-5.07v-7.92h5.07Z"/>
    <path class="st0" d="M1271.36,185.4v6.76h.43c1.36-5,5.53-7.45,10.53-7.45.7,0,1.42.1,2.15.23v9.11c-1.09-.23-2.12-.33-3.15-.33-6.29.07-9.97,4.24-9.97,10.73v17.59h-9.44v-36.63h9.44Z"/>
    <path class="st0" d="M1289.72,240.71v-8.71h3.28c4.24,0,6.49-2.05,6.79-6.19l.56-1.92-13.25-38.45h9.9l9.17,29.64h.17l9.14-29.64h9.9l-15.2,42.89c-2.95,8.28-8.71,12.39-17.52,12.39h-2.95Z"/>
    <path class="st0" d="M1057.63,273.35c0-9.67,9.21-13.91,18.78-13.91,11,0,19.61,4.93,19.51,14.61h-10c-.4-4.57-4.21-7.12-9.08-7.12-3.61,0-8.98,1.32-8.98,5.83,0,3.94,4.74,5.33,9.74,6.29,9.8,1.76,19.18,4.57,19.18,14.9s-10.07,14.81-19.81,14.81c-11.29,0-20.04-3.88-20.27-15.93h10c.33,5.8,4.17,8.45,10.33,8.45,4.5,0,9.94-1.69,9.94-6.59s-7.29-6.26-14.47-7.85c-7.42-1.66-14.87-3.88-14.87-13.48Z"/>
    <path class="st0" d="M1118.83,308.72c-10.6,0-17.85-7.65-17.85-19.28,0-10,5.8-18.81,17.46-18.81,10.9,0,17.39,7.32,17.39,19.54v1.62h-25.8c.13,5.76,3.21,9.77,8.98,9.77,4.27,0,6.89-2.29,7.52-5.2h8.84c-1.16,8.68-8.41,12.35-16.53,12.35ZM1110.15,285.73h16.49c-.5-4.8-3.68-8.02-8.25-8.02s-7.68,3.25-8.25,8.02Z"/>
    <path class="st0" d="M1151.18,271.33v6.76h.43c1.36-5,5.53-7.45,10.53-7.45.7,0,1.42.1,2.15.23v9.11c-1.09-.23-2.12-.33-3.15-.33-6.29.07-9.97,4.24-9.97,10.73v17.59h-9.44v-36.63h9.44Z"/>
    <path class="st0" d="M1180.54,307.96l-13.85-36.63h9.9l8.35,25.64h.17l8.25-25.64h9.9l-13.78,36.63h-8.94Z"/>
    <path class="st0" d="M1212.23,255.89c3.54,0,5.83,2.15,5.83,5.37s-2.28,5.5-5.83,5.5-5.63-2.15-5.63-5.5,2.25-5.37,5.63-5.37ZM1207.56,307.96v-36.63h9.44v36.63h-9.44Z"/>
    <path class="st0" d="M1223.04,289.61c0-11.72,7.49-18.98,18.18-18.98,9.41,0,15.6,5.17,16.66,13.75h-8.91c-.79-3.08-3.28-6.19-7.75-6.19-5.9,0-8.81,5.7-8.81,11.49s2.95,11.49,8.81,11.49c4.6,0,7.12-3.01,7.82-6.19h8.84c-1.06,8.38-6.72,13.75-16.66,13.75-10.77,0-18.18-7.35-18.18-19.11Z"/>
    <path class="st0" d="M1279.87,308.72c-10.6,0-17.85-7.65-17.85-19.28,0-10,5.8-18.81,17.46-18.81,10.9,0,17.39,7.32,17.39,19.54v1.62h-25.8c.13,5.76,3.21,9.77,8.98,9.77,4.27,0,6.89-2.29,7.52-5.2h8.84c-1.16,8.68-8.41,12.35-16.53,12.35ZM1271.19,285.73h16.49c-.5-4.8-3.68-8.02-8.25-8.02s-7.68,3.25-8.25,8.02Z"/>
    <path class="st0" d="M1301.02,296.63h9.11c.86,3.88,4.04,5.3,7.72,5.3,2.35,0,5.17-1.03,5.17-3.91,0-2.55-1.92-3.71-5-4.44l-5.89-1.42c-5-1.19-9.87-4.14-9.87-10.37,0-7.42,6.33-11.16,14.77-11.16,7.98,0,14.47,3.64,15.37,11.82h-8.61c-.7-3.58-3.31-5-6.66-5-2.72,0-5.6,1.16-5.6,3.68,0,1.85,1.62,3.35,4.7,4.07l6.16,1.42c6.62,1.52,10.47,4.14,10.47,10.4,0,7.49-6.56,11.73-15.63,11.73-8.01,0-15.17-3.35-16.2-12.12Z"/>
  </g>
  <g>
    <path class="st0" d="M321.51,64.62V.35h271.64v64.28h-97.66v244.61h-76.31V64.62h-97.66Z"/>
    <path class="st0" d="M903.86,244.96c19.53,0,29.3-9.77,29.3-29.3s-9.77-29.3-29.3-29.3h-58.83c-31.04,0-54.21-7.76-69.5-23.28-15.29-15.52-22.94-38.88-22.94-70.07s7.61-54.43,22.83-69.73c15.22-15.29,38.42-22.94,69.61-22.94h154.9v64.28h-138.55c-9.24,0-16.35,2.46-21.35,7.38-5,4.92-7.5,12.08-7.5,21.46s2.5,16.35,7.5,21.35c5,5,12.11,7.5,21.35,7.5h57.69c30.74,0,54.09,7.91,70.07,23.74,15.97,15.82,23.96,39.03,23.96,69.61s-7.99,54.02-23.96,69.84c-15.98,15.82-39.33,23.73-70.07,23.73h-158.08v-64.28h142.86Z"/>
    <path class="st0" d="M157.27.35v64.64c4.2-.24,8.6-.36,13.2-.36h121.96V.35h-135.17Z"/>
    <path class="st0" d="M157.27,123.22v63.14h58.85v58.6h-45.65c-22.71,0-40.54-2.88-53.49-8.63-12.95-5.75-22.3-15.1-28.05-28.05-5.75-12.95-8.63-30.78-8.63-53.49,0-12.15.83-22.89,2.48-32.24H2.17c-1.19,10.12-1.82,20.84-1.82,32.24,0,52.54,12.6,91.42,37.82,116.63,25.21,25.21,64.08,37.82,116.63,37.82h137.64V123.22h-135.17Z"/>
    <path class="st0" d="M703.08,80.93v228.31h-76.31V80.93h76.31Z"/>
    <path class="st0" d="M703.08,0v64.74h-76.31V0h76.31Z"/>
  </g>
</svg>